<svg width="86" height="40" viewBox="0 0 86 40" fill="none" xmlns="http://www.w3.org/2000/svg">
<path d="M34.7189 20.0211L12.1454 4.42851C11.9214 4.27344 11.866 3.96698 12.0198 3.74421L13.7687 1.21251C13.9238 0.988515 14.2303 0.93313 14.453 1.08698L35.7158 15.775C35.8844 15.8919 36.1072 15.8919 36.2758 15.775L47.7269 7.83405C47.9509 7.67898 48.2574 7.73436 48.4124 7.95836L50.1663 10.4864C50.3214 10.7104 50.266 11.0168 50.042 11.1719L37.2826 20.0211C37.2001 20.0777 37.1029 20.1085 37.002 20.1085H34.9983C34.8986 20.111 34.8001 20.0802 34.7177 20.0236L34.7189 20.0211Z" fill="#3B89FF"/>
<path d="M18.7054 15.7454V18.1984H11.5792V38.8273H9.12628V18.1984H2.00012V15.7454H18.7054Z" fill="white"/>
<path d="M34.8161 30.3153V38.8261H32.3632V30.3153C32.3632 28.8347 32.0174 27.7184 31.3244 26.9688C30.6315 26.2193 29.6801 25.8439 28.4678 25.8439C27.0832 25.8439 25.9238 26.3301 24.9909 27.3011C24.058 28.2722 23.5915 29.7011 23.5915 31.5854V38.8273H21.1103V15.7454H23.5915V23.7664L22.842 28.2673H23.4475C24.0629 24.9971 25.8512 23.3627 28.8137 23.3627C32.8137 23.3627 34.8149 25.6802 34.8149 30.3165L34.8161 30.3153Z" fill="white"/>
<path d="M41.6998 35.5805C42.613 36.3977 43.7527 36.8064 45.1189 36.8064C46.0998 36.8064 46.9897 36.5897 47.7872 36.1577C48.5847 35.7245 49.2346 35.1042 49.7343 34.2968L51.5521 35.5953C50.8986 36.7682 50.0087 37.6728 48.8838 38.3079C47.7589 38.943 46.5035 39.2605 45.1189 39.2605C43.7343 39.2605 42.378 38.9097 41.2235 38.207C40.069 37.5042 39.1657 36.5479 38.5109 35.3356C37.8573 34.1233 37.53 32.7867 37.53 31.3257C37.53 29.8648 37.8573 28.5848 38.5109 27.3725C39.1644 26.1602 40.074 25.2039 41.237 24.5011C42.4001 23.7996 43.6937 23.4476 45.1177 23.4476C46.6758 23.4476 48.0321 23.8427 49.1854 24.6304C50.3398 25.4193 51.21 26.4864 51.7958 27.8328C52.3829 29.1793 52.6278 30.6599 52.5318 32.2759H40.0395C40.2315 33.6605 40.7841 34.7621 41.6986 35.5793L41.6998 35.5805ZM41.7577 27.0981C40.8444 27.9153 40.2807 28.9873 40.0703 30.3153H50.1109C49.9189 28.9504 49.3798 27.8673 48.4949 27.0697C47.61 26.2722 46.485 25.8722 45.1189 25.8722C43.7527 25.8722 42.6709 26.2808 41.7577 27.0981Z" fill="white"/>
<path d="M66.2869 38.2931C65.162 38.9368 63.8586 39.2593 62.378 39.2593C60.8974 39.2593 59.6469 38.9085 58.5121 38.2057C57.3773 37.5042 56.4875 36.5467 55.8438 35.3344C55.1989 34.1221 54.8777 32.7854 54.8777 31.3245C54.8777 29.8636 55.2001 28.5602 55.8438 27.3577C56.4875 26.1553 57.3773 25.2039 58.5121 24.5011C59.6469 23.7996 60.9355 23.4476 62.378 23.4476C63.9164 23.4476 65.2678 23.7984 66.4321 24.5011C67.5952 25.2039 68.5047 26.1885 69.1583 27.4587L67.2247 28.8728C66.1281 26.911 64.5417 25.9301 62.4641 25.9301C61.4832 25.9301 60.6081 26.1565 59.8389 26.6082C59.0697 27.0599 58.4678 27.695 58.0358 28.5122C57.6026 29.3294 57.3872 30.2673 57.3872 31.3257C57.3872 32.9799 57.8586 34.303 58.8014 35.2925C59.7441 36.2833 60.965 36.7781 62.4653 36.7781C63.4463 36.7781 64.3213 36.5577 65.0906 36.1147C65.8598 35.6728 66.4949 35.0377 66.9946 34.2107L68.9564 35.5953C68.3029 36.7497 67.413 37.6482 66.2881 38.2931H66.2869Z" fill="white"/>
<path d="M83.13 25.2519C84.2844 26.4347 84.8617 27.9879 84.8617 29.9116V38.8273H82.4666L82.8998 34.2402H82.4087C81.9853 35.9141 81.2924 37.1645 80.3312 37.9916C79.3687 38.8187 78.1958 39.2322 76.8112 39.2322C74.9454 39.2322 73.5693 38.8088 72.6857 37.9633C71.8007 37.1165 71.3589 36.0396 71.3589 34.7313C71.3589 32.9036 72.0518 31.5965 73.4364 30.8076C74.821 30.0187 76.8506 29.6248 79.5238 29.6248H82.5244C82.4666 28.4704 82.0334 27.5719 81.226 26.927C80.4186 26.2833 79.3798 25.9608 78.1097 25.9608C77.0894 25.9608 76.2537 26.1922 75.6001 26.6537C74.9453 27.1153 74.3497 27.7984 73.8118 28.7017L71.7921 27.2297C72.5613 26.0568 73.4315 25.1374 74.4038 24.4741C75.3749 23.8107 76.6106 23.4784 78.1109 23.4784C80.3041 23.4784 81.9767 24.0704 83.1312 25.2531L83.13 25.2519ZM80.5909 35.3208C81.4943 34.3682 82.0813 33.1325 82.3509 31.6137H79.5238C77.5804 31.6137 76.138 31.8402 75.1964 32.2919C74.2537 32.7436 73.7823 33.4697 73.7823 34.4704C73.7823 35.1633 74.0518 35.7159 74.5897 36.1294C75.1275 36.543 75.9263 36.7497 76.9847 36.7497C78.485 36.7497 79.6875 36.2734 80.5909 35.3221V35.3208Z" fill="white"/>
</svg>
